<svg xmlns="http://www.w3.org/2000/svg" width="1600" height="760" viewBox="0 0 1600 760">
  <defs>
    <marker id="arrow" viewBox="0 0 10 10" refX="8.5" refY="5" markerWidth="8" markerHeight="8" orient="auto-start-reverse">
      <path d="M 0 0 L 10 5 L 0 10 z" fill="#222222"/>
    </marker>
    <style>
      .title { font: 700 30px "Noto Sans SC", "Microsoft YaHei", sans-serif; fill: #1f1f1f; }
      .section { font: 600 18px "Noto Sans SC", "Microsoft YaHei", sans-serif; fill: #222222; }
      .label { font: 600 16px "Noto Sans SC", "Microsoft YaHei", sans-serif; fill: #2f2f2f; }
      .box-title { font: 700 20px "Noto Sans SC", "Microsoft YaHei", sans-serif; fill: #ffffff; }
      .box-text { font: 500 16px "Noto Sans SC", "Microsoft YaHei", sans-serif; fill: #f5fbff; }
      .node-text { font: 600 19px "Noto Sans SC", "Microsoft YaHei", sans-serif; fill: #222222; }
      .small { font: 500 15px "Noto Sans SC", "Microsoft YaHei", sans-serif; fill: #4b4b4b; }
      .math { font: 600 18px "DejaVu Sans", "Noto Sans SC", sans-serif; fill: #222222; }
      .math-big { font: 600 24px "DejaVu Sans", "Noto Sans SC", sans-serif; fill: #222222; }
      .blue-fill { fill: #3e97d3; stroke: #2c6f9a; stroke-width: 2.5; }
      .gray-fill { fill: #efefef; stroke: #7f7f7f; stroke-width: 2.5; }
      .frame { fill: #ffffff; stroke: #7fc0df; stroke-width: 3; }
      .arrow { stroke: #222222; stroke-width: 3.2; fill: none; marker-end: url(#arrow); }
      .hint { font: 500 14px "Noto Sans SC", "Microsoft YaHei", sans-serif; fill: #1e668f; }
    </style>
  </defs>

  <rect x="0" y="0" width="1600" height="760" fill="#ffffff"/>

  <text x="800" y="72" text-anchor="middle" class="title">FedViM 联邦后处理流程</text>

  <rect x="70" y="110" width="1460" height="580" rx="8" ry="8" class="frame"/>

  <text x="96" y="166" class="section">Client Nodes</text>
  <text x="820" y="166" class="section">Client Nodes (Phase 2)</text>

  <circle cx="125" cy="240" r="20" class="blue-fill"/>
  <circle cx="125" cy="330" r="20" class="blue-fill"/>
  <circle cx="125" cy="420" r="20" class="blue-fill"/>
  <circle cx="125" cy="510" r="20" class="blue-fill"/>

  <rect x="205" y="300" width="170" height="120" rx="8" ry="8" class="blue-fill"/>
  <text x="290" y="345" text-anchor="middle" class="box-title">Frozen Global</text>
  <text x="290" y="375" text-anchor="middle" class="box-title">Model</text>
  <text x="290" y="403" text-anchor="middle" class="box-text">Federated backbone</text>
  <text x="290" y="425" text-anchor="middle" class="box-text">and classifier</text>

  <circle cx="480" cy="250" r="42" class="gray-fill"/>
  <text x="480" y="258" text-anchor="middle" class="math-big">s<tspan baseline-shift="sub" font-size="15">i</tspan><tspan baseline-shift="super" font-size="15">(1)</tspan></text>

  <circle cx="480" cy="360" r="54" class="gray-fill"/>
  <text x="480" y="368" text-anchor="middle" class="math-big">s<tspan baseline-shift="sub" font-size="15">i</tspan><tspan baseline-shift="super" font-size="15">(2)</tspan></text>

  <circle cx="480" cy="495" r="42" class="gray-fill"/>
  <text x="480" y="503" text-anchor="middle" class="math-big">c<tspan baseline-shift="sub" font-size="15">i</tspan></text>

  <circle cx="635" cy="375" r="42" class="gray-fill"/>
  <text x="635" y="383" text-anchor="middle" class="math-big">Σ</text>

  <circle cx="790" cy="375" r="42" class="gray-fill"/>
  <text x="790" y="383" text-anchor="middle" class="math-big">P</text>
  <text x="790" y="442" text-anchor="middle" class="hint">FedViM: fixed-k</text>
  <text x="790" y="462" text-anchor="middle" class="hint">ACT-FedViM: ACT-selected k</text>

  <circle cx="905" cy="240" r="20" class="blue-fill"/>
  <circle cx="905" cy="330" r="20" class="blue-fill"/>
  <circle cx="905" cy="420" r="20" class="blue-fill"/>
  <circle cx="905" cy="510" r="20" class="blue-fill"/>

  <ellipse cx="1040" cy="240" rx="64" ry="32" class="gray-fill"/>
  <text x="1040" y="247" text-anchor="middle" class="math">S<tspan baseline-shift="sub" font-size="13">i</tspan><tspan baseline-shift="super" font-size="13">R</tspan>, S<tspan baseline-shift="sub" font-size="13">i</tspan><tspan baseline-shift="super" font-size="13">E</tspan></text>
  <text x="1040" y="267" text-anchor="middle" class="small">n<tspan baseline-shift="sub" font-size="11">i</tspan></text>

  <ellipse cx="1040" cy="330" rx="64" ry="32" class="gray-fill"/>
  <text x="1040" y="337" text-anchor="middle" class="math">S<tspan baseline-shift="sub" font-size="13">i</tspan><tspan baseline-shift="super" font-size="13">R</tspan>, S<tspan baseline-shift="sub" font-size="13">i</tspan><tspan baseline-shift="super" font-size="13">E</tspan></text>
  <text x="1040" y="357" text-anchor="middle" class="small">n<tspan baseline-shift="sub" font-size="11">i</tspan></text>

  <ellipse cx="1040" cy="420" rx="64" ry="32" class="gray-fill"/>
  <text x="1040" y="427" text-anchor="middle" class="math">S<tspan baseline-shift="sub" font-size="13">i</tspan><tspan baseline-shift="super" font-size="13">R</tspan>, S<tspan baseline-shift="sub" font-size="13">i</tspan><tspan baseline-shift="super" font-size="13">E</tspan></text>
  <text x="1040" y="447" text-anchor="middle" class="small">n<tspan baseline-shift="sub" font-size="11">i</tspan></text>

  <ellipse cx="1040" cy="510" rx="64" ry="32" class="gray-fill"/>
  <text x="1040" y="517" text-anchor="middle" class="math">S<tspan baseline-shift="sub" font-size="13">i</tspan><tspan baseline-shift="super" font-size="13">R</tspan>, S<tspan baseline-shift="sub" font-size="13">i</tspan><tspan baseline-shift="super" font-size="13">E</tspan></text>
  <text x="1040" y="537" text-anchor="middle" class="small">n<tspan baseline-shift="sub" font-size="11">i</tspan></text>

  <circle cx="1195" cy="375" r="42" class="gray-fill"/>
  <text x="1195" y="383" text-anchor="middle" class="math-big">α</text>

  <circle cx="1390" cy="220" r="58" class="gray-fill"/>
  <text x="1390" y="208" text-anchor="middle" class="math-big">X</text>
  <text x="1390" y="238" text-anchor="middle" class="node-text">Input Data</text>

  <rect x="1290" y="345" width="210" height="60" rx="6" ry="6" class="gray-fill"/>
  <text x="1395" y="383" text-anchor="middle" class="math">(P, α, μ, Model)</text>

  <rect x="1290" y="470" width="210" height="72" rx="8" ry="8" class="blue-fill"/>
  <text x="1395" y="515" text-anchor="middle" class="box-title">ViM Score</text>

  <path d="M 145 240 L 205 330" class="arrow"/>
  <path d="M 145 330 L 205 350" class="arrow"/>
  <path d="M 145 420 L 205 370" class="arrow"/>
  <path d="M 145 510 L 205 390" class="arrow"/>

  <path d="M 375 330 L 438 250" class="arrow"/>
  <path d="M 375 360 L 423 360" class="arrow"/>
  <path d="M 375 390 L 438 495" class="arrow"/>

  <path d="M 522 250 L 606 346" class="arrow"/>
  <path d="M 534 360 L 593 371" class="arrow"/>
  <path d="M 522 495 L 606 405" class="arrow"/>

  <path d="M 677 375 L 748 375" class="arrow"/>

  <path d="M 832 375 L 885 240" class="arrow"/>
  <path d="M 832 375 L 885 330" class="arrow"/>
  <path d="M 832 375 L 885 420" class="arrow"/>
  <path d="M 832 375 L 885 510" class="arrow"/>

  <path d="M 925 240 L 976 240" class="arrow"/>
  <path d="M 925 330 L 976 330" class="arrow"/>
  <path d="M 925 420 L 976 420" class="arrow"/>
  <path d="M 925 510 L 976 510" class="arrow"/>

  <path d="M 1104 240 L 1160 350" class="arrow"/>
  <path d="M 1104 330 L 1152 366" class="arrow"/>
  <path d="M 1104 420 L 1152 384" class="arrow"/>
  <path d="M 1104 510 L 1160 401" class="arrow"/>

  <path d="M 1237 375 L 1290 375" class="arrow"/>
  <path d="M 1390 278 L 1390 345" class="arrow"/>
  <path d="M 1395 405 L 1395 470" class="arrow"/>

  <text x="800" y="655" text-anchor="middle" class="small">Only aggregated statistics are transmitted; raw images and sample-level features remain local.</text>
</svg>
